<?xml version="1.0" encoding="utf-8"?>
<!-- Generator: Adobe Illustrator 21.1.0, SVG Export Plug-In . SVG Version: 6.00 Build 0)  -->
<svg version="1.1" id="Calque_1" xmlns="http://www.w3.org/2000/svg" xmlns:xlink="http://www.w3.org/1999/xlink" x="0px" y="0px"
	 viewBox="0 0 841.9 595.3" style="enable-background:new 0 0 841.9 595.3;" xml:space="preserve">
<style type="text/css">
	.st0{opacity:0.5;fill:#010202;}
	.st1{fill:#010202;}
</style>
<path class="st0" d="M294.3,243.2v85l-85-85v0c-5.4,4-10.1,8.8-14.2,14.2v85c4,5.4,8.8,10.1,14.2,14.2v-85.1l85,85v0
	c5.4-4,10.1-8.8,14.2-14.2v-85C304.4,252,299.6,247.3,294.3,243.2z"/>
<path class="st0" d="M722.8,356.6c5.4-4,10.1-8.8,14.2-14.2v-85c-4-5.4-8.8-10.1-14.2-14.2v0l-99.2,99.2c4,5.4,8.8,10.1,14.2,14.2
	l85-85V356.6z"/>
<path class="st0" d="M634.4,243.2l-85,85v-85c-5.4,4-10.1,8.8-14.2,14.2v85c4,5.4,8.8,10.1,14.2,14.2v0l99.2-99.2
	C644.5,252,639.8,247.3,634.4,243.2z"/>
<g>
	<path class="st1" d="M351.9,292.2c0,13.9,7.9,26.5,20.7,35.7c-4.7-8.2-7.4-17.8-7.4-27.9c0-31.3,25.4-56.7,56.7-56.7
		c31.3,0,56.7,25.4,56.7,56.7c0,10.2-2.7,19.7-7.4,27.9c12.8-9.1,20.7-21.7,20.7-35.7c0-2.4-0.2-4.7-0.7-6.9
		c-6.8-32.1-35.2-56.2-69.3-56.2c-34.1,0-62.6,24.1-69.3,56.2C352.1,287.6,351.9,289.9,351.9,292.2z"/>
	<path class="st1" d="M421.9,257.4c-23.5,0-42.5,19-42.5,42.5c0,23.5,19,42.5,42.5,42.5h0c23.5,0,42.5-19,42.5-42.5
		S445.4,257.4,421.9,257.4z"/>
	<path class="st1" d="M421.9,356.7L421.9,356.7c-35.3,0-64.6-18.7-69.5-43.1c6.3,32.6,35.1,57.3,69.5,57.3
		c34.5,0,63.2-24.6,69.5-57.3C486.5,337.9,457.3,356.7,421.9,356.7z"/>
</g>
<g>
	<path d="M342.3,413.3h5.3l-9.7,13.6l10.5,14.8h-5.3l-7.9-11.1l-7.9,11.1h-5.3l10.5-14.8l-9.7-13.6h5.3l7.1,9.9L342.3,413.3z"/>
	<path d="M353.3,413.3h11.9c2.6,0,4.8,0.8,6.5,2.5c1.7,1.7,2.6,3.7,2.6,6.2c0,1.2-0.2,2.2-0.6,3.3c-0.4,1-0.9,1.8-1.4,2.4
		c-0.6,0.6-1.1,1.1-1.7,1.5c-0.6,0.4-1,0.7-1.4,0.9l-0.6,0.3l6.5,11.3h-4.9l-6.1-10.9h-6.5v10.9h-4.4V413.3z M368.5,418.7
		c-0.9-0.9-2-1.3-3.3-1.3h-7.5v9.3h7.5c1.3,0,2.4-0.4,3.3-1.3c0.9-0.9,1.3-2,1.3-3.3C369.8,420.7,369.4,419.6,368.5,418.7z"/>
	<path d="M415.4,413.3h3.9v28.3h-4.4V421L404.4,434L394.1,421v20.6h-4.4v-28.3h3.8l10.9,13.8L415.4,413.3z"/>
	<path d="M447.7,437.6v4.1h-20.4v-28.3h20v4.1h-15.6v7.5h12.4v4.1h-12.4v8.7H447.7z"/>
	<path d="M463.7,413.3c3.9,0,7.3,1.4,10.1,4.2c2.8,2.8,4.2,6.1,4.2,10c0,3.9-1.4,7.2-4.2,10c-2.8,2.8-6.2,4.2-10.1,4.2h-9.9v-28.3
		H463.7z M458.2,417.4v20.2h5.5c2.8,0,5.1-1,7-2.9c1.9-2,2.9-4.4,2.9-7.2s-1-5.2-2.9-7.2c-1.9-2-4.3-2.9-7-2.9H458.2z"/>
	<path d="M484.5,413.3h4.4v28.3h-4.4V413.3z"/>
	<path d="M505.6,413.3h4.4l11.7,28.3h-4.6l-3-7.5h-12.6l-3,7.5h-4.6L505.6,413.3z M503.1,430.1h9.3l-4.6-11.7L503.1,430.1z"/>
</g>
</svg>
