<?xml version="1.0" encoding="utf-8"?>
<!-- Generator: Adobe Illustrator 21.1.0, SVG Export Plug-In . SVG Version: 6.00 Build 0)  -->
<svg version="1.1" id="Calque_1" xmlns="http://www.w3.org/2000/svg" xmlns:xlink="http://www.w3.org/1999/xlink" x="0px" y="0px"
	 viewBox="0 0 841.9 595.3" style="enable-background:new 0 0 841.9 595.3;" xml:space="preserve">
<style type="text/css">
	.st0{fill:#010202;}
</style>
<g>
	<path class="st0" d="M351.9,292.2c0,13.9,7.9,26.5,20.7,35.7c-4.7-8.2-7.4-17.8-7.4-27.9c0-31.3,25.4-56.7,56.7-56.7
		c31.3,0,56.7,25.4,56.7,56.7c0,10.2-2.7,19.7-7.4,27.9c12.8-9.1,20.7-21.7,20.7-35.7c0-2.4-0.2-4.7-0.7-6.9
		c-6.8-32.1-35.2-56.2-69.3-56.2c-34.1,0-62.6,24.1-69.3,56.2C352.1,287.6,351.9,289.9,351.9,292.2z"/>
	<path class="st0" d="M421.9,257.4c-23.5,0-42.5,19-42.5,42.5c0,23.5,19,42.5,42.5,42.5h0c23.5,0,42.5-19,42.5-42.5
		S445.4,257.4,421.9,257.4z"/>
	<path class="st0" d="M421.9,356.7L421.9,356.7c-35.3,0-64.6-18.7-69.5-43.1c6.3,32.6,35.1,57.3,69.5,57.3
		c34.5,0,63.2-24.6,69.5-57.3C486.5,337.9,457.3,356.7,421.9,356.7z"/>
</g>
</svg>
