<?xml version="1.0" encoding="UTF-8" standalone="no"?>
<!-- Generator: Adobe Illustrator 21.1.0, SVG Export Plug-In . SVG Version: 6.00 Build 0)  -->

<svg
   xmlns:dc="http://purl.org/dc/elements/1.1/"
   xmlns:cc="http://creativecommons.org/ns#"
   xmlns:rdf="http://www.w3.org/1999/02/22-rdf-syntax-ns#"
   xmlns:svg="http://www.w3.org/2000/svg"
   xmlns="http://www.w3.org/2000/svg"
   xmlns:sodipodi="http://sodipodi.sourceforge.net/DTD/sodipodi-0.dtd"
   xmlns:inkscape="http://www.inkscape.org/namespaces/inkscape"
   version="1.1"
   id="Calque_1"
   x="0px"
   y="0px"
   viewBox="0 0 141.7 141.7"
   style="enable-background:new 0 0 141.7 141.7;"
   xml:space="preserve"
   sodipodi:docname="linkedin.svg"
   inkscape:version="0.92.2 5c3e80d, 2017-08-06"><metadata
     id="metadata224"><rdf:RDF><cc:Work
         rdf:about=""><dc:format>image/svg+xml</dc:format><dc:type
           rdf:resource="http://purl.org/dc/dcmitype/StillImage" /></cc:Work></rdf:RDF></metadata><defs
     id="defs222" /><sodipodi:namedview
     pagecolor="#ffffff"
     bordercolor="#666666"
     borderopacity="1"
     objecttolerance="10"
     gridtolerance="10"
     guidetolerance="10"
     inkscape:pageopacity="0"
     inkscape:pageshadow="2"
     inkscape:window-width="1920"
     inkscape:window-height="1016"
     id="namedview220"
     showgrid="false"
     inkscape:zoom="1.6654905"
     inkscape:cx="70.849998"
     inkscape:cy="70.849998"
     inkscape:window-x="0"
     inkscape:window-y="27"
     inkscape:window-maximized="1"
     inkscape:current-layer="g217" /><style
     type="text/css"
     id="style209">
	.st0{fill:#606060;}
</style><g
     id="g217"><path
       class="st0"
       d="M108.9,136.9c0-10.6,0-20,0-29.4c0-7.9,0.2-15.7-0.2-23.6c-0.4-7.7-4.6-12-11.3-12.8c-8.6-1-13.9,1.9-16.3,9.5   c-1.1,3.3-1.4,7-1.5,10.6c-0.2,13-0.2,26.1,0,39.1c0.1,4.8-1.2,7-6.4,6.8c-7.1-0.3-14.3-0.1-21.8-0.1c0-30,0-59,0-88.5   c9,0,17.7,0,26.6,0c0.2,3,0.4,5.6,0.6,7.6c5.7-3,11.3-7.9,17.6-9c27.5-4.9,39.9,7.8,41.2,33.9c0.8,16.8,0.3,33.7,0,50.5   c0,1.8-2.5,5.1-3.9,5.2C125.6,137.2,117.7,136.9,108.9,136.9z"
       id="path211"
       style="fill:#ffffff" /><path
       class="st0"
       d="M6.8,137c0-30.3,0-59.1,0-88.4c9.2,0,18.1,0,27.7,0c0.2,2.2,0.5,4.3,0.5,6.5c0,24.9-0.1,49.8,0.1,74.7   c0.1,5.5-1.4,7.7-7.2,7.4C21.1,136.7,14.1,137,6.8,137z"
       id="path213"
       style="fill:#ffffff" /><path
       class="st0"
       d="M20.6,36.7c-9.1,0-16.2-6.9-16.3-15.9C4.2,11.6,11.9,3.8,20.8,4c8.7,0.2,15.9,7.7,15.9,16.6   C36.6,29.8,29.8,36.7,20.6,36.7z"
       id="path215"
       style="fill:#ffffff" /></g></svg>