<?xml version="1.0" standalone="no"?>
<!DOCTYPE svg PUBLIC "-//W3C//DTD SVG 20010904//EN" "http://www.w3.org/TR/2001/REC-SVG-20010904/DTD/svg10.dtd">
<!-- Created using Karbon, part of Calligra: http://www.calligra.org/karbon -->
<svg xmlns="http://www.w3.org/2000/svg" xmlns:xlink="http://www.w3.org/1999/xlink" width="250" height="260">
<defs/>
<g id="layer0">
  <path id="shape0" transform="translate(2.9634, 4.97144)" fill="#010202" d="M0 111.486C0 136.044 13.8541 158.306 36.3012 174.561C28.0589 160.073 23.3239 143.112 23.3239 125.267C23.3239 69.9657 67.8676 25.0887 122.758 25.0887C177.648 25.0887 222.192 69.9657 222.192 125.267C222.192 143.288 217.457 160.073 209.214 174.561C231.662 158.483 245.515 136.221 245.515 111.486C245.515 107.245 245.165 103.182 244.288 99.2948C232.363 42.5801 182.558 0 122.758 0C62.9572 0 12.9773 42.5801 1.22758 99.2948C0.350737 103.358 0 107.422 0 111.486Z"/>
  <path id="shape1" transform="translate(51.2375, 54.9469)" fill="#010202" d="M74.6956 0C33.3934 0 0 33.5524 0 75.0514C0 116.55 33.3934 150.103 74.6956 150.103L74.6956 150.103C115.998 150.103 149.392 116.55 149.392 75.0514C149.392 33.5524 115.998 0 74.6956 0Z"/>
  <path id="shape2" transform="translate(3.84111, 154.191)" fill="#010202" d="M122.023 75.8463L122.023 75.8463C60.0459 75.8463 8.60306 42.9385 0 0C11.0611 57.3686 61.626 100.835 122.023 100.835C182.595 100.835 232.984 57.5446 244.046 0C235.443 42.7625 184.176 75.8463 122.023 75.8463Z"/>
 </g>
</svg>
